<svg width="32" height="29" viewBox="0 0 32 29" fill="none" xmlns="http://www.w3.org/2000/svg">
<g clip-path="url(#clip0_1_76)">
<path d="M12.4444 14.6278C12.4555 12.9611 13.2444 11.4 14.5778 10.4L27.7278 0.533612C28.7611 -0.241833 30.2 -0.164722 31.15 0.716667C32.0944 1.59778 32.2667 3.03 31.5667 4.115L22.5833 18.0056C21.7389 19.3167 20.3667 20.1778 18.85 20.3944L12.4444 14.6278ZM17.7778 22.2222C17.7778 25.6611 14.9944 28.4444 11.5555 28.4444H3.55555C2.57388 28.4444 1.77777 27.65 1.77777 26.6667C1.77777 25.6833 2.57388 24.8889 3.55555 24.8889H3.82277C4.80222 24.8889 5.46666 23.8389 5.3661 22.8667C5.34444 22.6556 5.33333 22.4389 5.33333 22.2222C5.33333 18.8667 7.99444 16.1278 11.3167 16.0056L17.7667 21.8056C17.7722 21.8944 17.7778 22.0833 17.7778 22.2222Z" fill="#091E42"/>
</g>
<defs>
<clipPath id="clip0_1_76">
<rect width="32" height="28.4444" fill="white"/>
</clipPath>
</defs>
</svg>
