<svg width="32" height="32" viewBox="0 0 32 32" fill="none" xmlns="http://www.w3.org/2000/svg">
<g clip-path="url(#clip0_3_44)">
<path d="M31.95 24.1875L30.4969 30.4875C30.2928 31.3781 29.51 32.0013 28.5931 32.0013C12.825 32 0 19.175 0 3.40625C0 2.49 0.623062 1.70625 1.51375 1.50313L7.81375 0.0500017C8.73125 -0.162623 9.66875 0.313627 10.05 1.1825L12.9575 7.96375C13.2974 8.7625 13.0681 9.69313 12.3962 10.2419L9.03125 12.9438C11.155 17.27 14.6725 20.7875 19 22.9125L21.755 19.55C22.298 18.8763 23.2356 18.6431 24.0344 18.9891L30.8156 21.8959C31.6312 22.325 32.1625 23.275 31.95 24.1875Z" fill="#091E42"/>
</g>
<defs>
<clipPath id="clip0_3_44">
<rect width="32" height="32" fill="white"/>
</clipPath>
</defs>
</svg>
