<svg width="16" height="16" viewBox="0 0 16 16" fill="none" xmlns="http://www.w3.org/2000/svg">
<path d="M9.5 1.5C9.5 2.32844 8.82812 3 8 3C7.17188 3 6.5 2.32844 6.5 1.5C6.5 0.671562 7.17188 0 8 0C8.82812 0 9.5 0.671562 9.5 1.5ZM9.5 14.5C9.5 15.3281 8.82812 16 8 16C7.17188 16 6.5 15.3281 6.5 14.5C6.5 13.6719 7.17188 13 8 13C8.82812 13 9.5 13.6719 9.5 14.5ZM0 8C0 7.17188 0.671562 6.5 1.5 6.5C2.32844 6.5 3 7.17188 3 8C3 8.82812 2.32844 9.5 1.5 9.5C0.671562 9.5 0 8.82812 0 8ZM16 8C16 8.82812 15.3281 9.5 14.5 9.5C13.6719 9.5 13 8.82812 13 8C13 7.17188 13.6719 6.5 14.5 6.5C15.3281 6.5 16 7.17188 16 8ZM2.34313 13.6562C1.75719 13.0719 1.75719 12.1219 2.34313 11.5344C2.92906 10.95 3.87812 10.95 4.46562 11.5344C5.05 12.1219 5.05 13.0719 4.46562 13.6562C3.87812 14.2437 2.92906 14.2437 2.34313 13.6562ZM4.46562 4.46562C3.87812 5.05 2.92906 5.05 2.34313 4.46562C1.7575 3.87812 1.7575 2.92906 2.34313 2.34313C2.92906 1.75719 3.87812 1.75719 4.46562 2.34313C5.05 2.92906 5.05 3.87812 4.46562 4.46562ZM11.5344 11.5344C12.1219 10.95 13.0719 10.95 13.6562 11.5344C14.2437 12.1219 14.2437 13.0719 13.6562 13.6562C13.0719 14.2437 12.1219 14.2437 11.5344 13.6562C10.95 13.0719 10.95 12.1219 11.5344 11.5344Z" fill="#6B778C"/>
</svg>
