<svg width="32" height="26" viewBox="0 0 32 26" fill="none" xmlns="http://www.w3.org/2000/svg">
<g clip-path="url(#clip0_11_4)">
<path d="M11.2 12.878C14.735 12.878 17.6 9.99508 17.6 6.43902C17.6 2.88297 14.735 0 11.2 0C7.665 0 4.8 2.88297 4.8 6.43902C4.8 9.99508 7.665 12.878 11.2 12.878ZM13.735 15.2927H8.665C3.8805 15.2927 0 19.1963 0 24.0105C0 24.9764 0.776 25.7561 1.733 25.7561H20.668C21.625 25.7561 22.4 24.9764 22.4 24.0105C22.4 19.1963 18.52 15.2927 13.735 15.2927ZM30.8 10.061H28.4V7.64634C28.4 6.98232 27.865 6.43902 27.2 6.43902C26.535 6.43902 26 6.9798 26 7.64634V10.061H23.6C22.94 10.061 22.4 10.6043 22.4 11.2683C22.4 11.9323 22.9375 12.4756 23.6 12.4756H26V14.8902C26 15.5593 26.54 16.0976 27.2 16.0976C27.86 16.0976 28.4 15.5568 28.4 14.8902V12.4756H30.8C31.465 12.4756 32 11.9373 32 11.2683C32 10.5992 31.465 10.061 30.8 10.061Z" fill="#091E42"/>
</g>
<defs>
<clipPath id="clip0_11_4">
<rect width="32" height="25.7561" fill="white"/>
</clipPath>
</defs>
</svg>
