<svg width="32" height="29" viewBox="0 0 32 29" fill="none" xmlns="http://www.w3.org/2000/svg">
<g clip-path="url(#clip0_11_6)">
<path d="M29.3333 0H2.66667C1.19444 0 0 1.19444 0 2.66667V20.4444C0 21.9167 1.19444 23.1111 2.66667 23.1111H13.3333L12.4444 25.7778H8.44444C7.71111 25.7778 7.11111 26.3778 7.11111 27.1111C7.11111 27.8444 7.71111 28.4444 8.44444 28.4444H23.5556C24.2917 28.4444 24.8889 27.8472 24.8889 27.1111C24.8889 26.375 24.2917 25.7778 23.5556 25.7778H19.5556L18.6667 23.1111H29.3333C30.8056 23.1111 32 21.9167 32 20.4444V2.66667C32 1.19444 30.8056 0 29.3333 0ZM28.4444 19.5556H3.55556V3.55556H28.4444V19.5556Z" fill="#091E42"/>
</g>
<defs>
<clipPath id="clip0_11_6">
<rect width="32" height="28.4444" fill="white"/>
</clipPath>
</defs>
</svg>
